<?xml version="1.0" standalone="no"?><!DOCTYPE svg PUBLIC "-//W3C//DTD SVG 1.1//EN" "http://www.w3.org/Graphics/SVG/1.1/DTD/svg11.dtd"><svg t="1625552596986" class="icon" viewBox="0 0 1024 1024" version="1.1" xmlns="http://www.w3.org/2000/svg" p-id="1331" xmlns:xlink="http://www.w3.org/1999/xlink" width="200" height="200"><defs><style type="text/css"></style></defs><path d="M415.134997 304.432432H362.551213c-2.767568 0-5.535135 0-11.07027 2.767568l-55.351352 60.886486c-2.767568 2.767568-2.767568 8.302703-2.767567 11.070271V415.135135c0 2.767568 2.767568 5.535135 5.535135 5.535135h116.237838c2.767568 0 5.535135-2.767568 5.535135-5.535135v-105.167567c0-2.767568-2.767568-5.535135-5.535135-5.535136z" p-id="1332"></path><path d="M511.999862 0C279.524186 2.767568 94.097159 190.962162 96.864726 423.437838c0 113.47027 44.281081 218.637838 121.772973 298.897297L511.999862 1024l293.362162-298.897297c77.491892-80.259459 121.772973-188.194595 121.772973-298.897298C929.902564 190.962162 744.475537 2.767568 511.999862 0z m171.589189 224.172973s55.351351 80.259459 52.583784 107.935135c0 13.837838-5.535135 27.675676-16.605406 38.745946-11.07027 11.07027-24.908108 16.605405-38.745946 16.605405h-11.07027c11.07027-16.605405 16.605405-33.210811 16.605405-52.583783s-11.07027-47.048649-24.908108-77.491892c11.07027-19.372973 22.140541-33.210811 22.140541-33.210811z m-94.097297-38.745946s71.956757 107.935135 71.956756 146.681081-30.443243 71.956757-71.956756 71.956757c-38.745946 0-71.956757-30.443243-71.956757-71.956757 0-38.745946 71.956757-146.681081 71.956757-146.681081zM343.17824 617.167568c-30.443243 0-52.583784-24.908108-52.583784-52.583784 0-13.837838 5.535135-27.675676 16.605406-38.745946 8.302703-8.302703 22.140541-13.837838 35.978378-13.837838 30.443243 0 52.583784 24.908108 52.583784 52.583784 0 30.443243-24.908108 52.583784-52.583784 52.583784z m107.935135-66.421622c0 5.535135-2.767568 8.302703-8.302703 8.302703h-19.372973c-5.535135-41.513514-38.745946-71.956757-80.259459-71.956757S265.686348 517.535135 262.918781 559.048649h-11.070271c-5.535135 0-8.302703-2.767568-8.302702-8.302703V387.459459c0-5.535135 2.767568-11.07027 5.535135-16.605405l91.329729-99.632432c2.767568-2.767568 8.302703-5.535135 13.837838-5.535136h85.794595c5.535135 0 8.302703 5.535135 11.07027 8.302703v276.756757z m215.87027 66.421622c-30.443243 0-52.583784-24.908108-52.583783-52.583784 0-30.443243 24.908108-52.583784 52.583783-52.583784 30.443243 0 52.583784 24.908108 52.583784 52.583784 0 30.443243-24.908108 52.583784-52.583784 52.583784z m110.702703-88.562163c0 16.605405-13.837838 33.210811-30.443243 33.210811-5.535135-41.513514-38.745946-71.956757-80.25946-71.956757s-77.491892 30.443243-80.259459 71.956757h-83.027027c-19.372973 0-33.210811-13.837838-33.210811-33.210811v-99.632432h307.2v99.632432z" p-id="1333"></path></svg>